<svg width="17" height="17" viewBox="0 0 17 17" fill="none" xmlns="http://www.w3.org/2000/svg">
<path d="M12.6941 1.06603C12.6939 1.34773 12.5818 1.6178 12.3825 1.81687L6.94813 7.2512C6.78364 7.41564 6.65316 7.61088 6.56414 7.82576C6.47511 8.04064 6.4293 8.27095 6.4293 8.50353C6.4293 8.73612 6.47511 8.96643 6.56414 9.18131C6.65316 9.39619 6.78364 9.59142 6.94813 9.75587L12.3754 15.1831C12.5689 15.3835 12.676 15.6519 12.6736 15.9305C12.6712 16.2091 12.5594 16.4756 12.3624 16.6726C12.1654 16.8695 11.8989 16.9813 11.6204 16.9837C11.3418 16.9861 11.0734 16.879 10.873 16.6855L5.44575 11.2625C4.716 10.5313 4.30615 9.54047 4.30615 8.50743C4.30615 7.47439 4.716 6.48355 5.44575 5.75237L10.8801 0.314492C11.0287 0.165802 11.218 0.0645309 11.4242 0.0234942C11.6304 -0.0175424 11.8441 0.00349942 12.0383 0.0839572C12.2325 0.164415 12.3985 0.300673 12.5152 0.475488C12.632 0.650304 12.6942 0.855821 12.6941 1.06603Z" fill="#00B2FF"/>
</svg>
