<svg width="18" height="21" viewBox="0 0 18 21" fill="none" xmlns="http://www.w3.org/2000/svg">
<g clip-path="url(#clip0_72_19)">
<path d="M9 0.259738C7.21997 0.259738 5.47991 0.842419 3.99987 1.9341C2.51983 3.02578 1.36628 4.57742 0.685088 6.39282C0.00389957 8.20821 -0.17433 10.2058 0.172937 12.133C0.520204 14.0603 1.37737 15.8305 2.63604 17.22C3.89472 18.6094 5.49836 19.5556 7.24419 19.939C8.99002 20.3223 10.7996 20.1256 12.4442 19.3736C14.0887 18.6216 15.4943 17.3482 16.4832 15.7144C17.4722 14.0806 18 12.1598 18 10.1948C17.9974 7.56073 17.0484 5.03537 15.3611 3.1728C13.6738 1.31023 11.3862 0.262587 9 0.259738ZM9 18.474C7.51664 18.474 6.0666 17.9885 4.83323 17.0787C3.59986 16.169 2.63856 14.876 2.07091 13.3631C1.50325 11.8503 1.35473 10.1856 1.64411 8.57961C1.9335 6.9736 2.64781 5.49838 3.6967 4.34051C4.7456 3.18264 6.08197 2.39412 7.53683 2.07467C8.99168 1.75521 10.4997 1.91917 11.8701 2.5458C13.2406 3.17244 14.4119 4.2336 15.236 5.59511C16.0601 6.95663 16.5 8.55733 16.5 10.1948C16.4978 12.3898 15.7069 14.4943 14.3009 16.0464C12.8948 17.5986 10.9885 18.4716 9 18.474Z" fill="#6B6B6B"/>
<path d="M8.99996 5.22727C8.80105 5.22727 8.61028 5.3145 8.46963 5.46976C8.32898 5.62503 8.24996 5.83561 8.24996 6.05519V9.63596L5.72171 11.3845C5.55263 11.5011 5.43244 11.6871 5.38757 11.9015C5.34271 12.1159 5.37684 12.3412 5.48246 12.5279C5.58808 12.7145 5.75654 12.8472 5.95078 12.8967C6.14503 12.9463 6.34913 12.9086 6.51821 12.792L9.39821 10.805C9.50702 10.7297 9.59651 10.6249 9.6581 10.5005C9.71969 10.3761 9.75132 10.2364 9.74996 10.0946V6.05519C9.74996 5.83561 9.67094 5.62503 9.53029 5.46976C9.38964 5.3145 9.19887 5.22727 8.99996 5.22727Z" fill="#6B6B6B"/>
</g>
<defs>
<clipPath id="clip0_72_19">
<rect width="18" height="19.8701" fill="white" transform="translate(0 0.259738)"/>
</clipPath>
</defs>
</svg>
