<svg width="34" height="33" viewBox="0 0 34 33" fill="none" xmlns="http://www.w3.org/2000/svg">
<g clip-path="url(#clip0_75_286)">
<path d="M31.7323 30.3214H7.62514C6.55954 30.3214 5.53758 29.8981 4.78409 29.1446C4.03059 28.3911 3.60728 27.3692 3.60728 26.3036V2.19642C3.60728 1.84122 3.46618 1.50056 3.21501 1.2494C2.96385 0.998235 2.6232 0.857132 2.268 0.857132C1.9128 0.857132 1.57214 0.998235 1.32098 1.2494C1.06981 1.50056 0.928711 1.84122 0.928711 2.19642L0.928711 26.3036C0.930838 28.0789 1.63704 29.7809 2.8924 31.0363C4.14776 32.2917 5.84979 32.9979 7.62514 33H31.7323C32.0875 33 32.4281 32.8589 32.6793 32.6077C32.9305 32.3566 33.0716 32.0159 33.0716 31.6607C33.0716 31.3055 32.9305 30.9648 32.6793 30.7137C32.4281 30.4625 32.0875 30.3214 31.7323 30.3214Z" fill="white"/>
<path d="M8.96453 27.6429C9.31973 27.6429 9.66038 27.5017 9.91155 27.2506C10.1627 26.9994 10.3038 26.6588 10.3038 26.3036V16.9286C10.3038 16.5734 10.1627 16.2327 9.91155 15.9815C9.66038 15.7304 9.31973 15.5893 8.96453 15.5893C8.60933 15.5893 8.26868 15.7304 8.01751 15.9815C7.76635 16.2327 7.62524 16.5734 7.62524 16.9286V26.3036C7.62524 26.6588 7.76635 26.9994 8.01751 27.2506C8.26868 27.5017 8.60933 27.6429 8.96453 27.6429Z" fill="white"/>
<path d="M14.3215 14.25V26.3036C14.3215 26.6588 14.4626 26.9994 14.7138 27.2506C14.965 27.5017 15.3056 27.6428 15.6608 27.6428C16.016 27.6428 16.3567 27.5017 16.6078 27.2506C16.859 26.9994 17.0001 26.6588 17.0001 26.3036V14.25C17.0001 13.8948 16.859 13.5541 16.6078 13.303C16.3567 13.0518 16.016 12.9107 15.6608 12.9107C15.3056 12.9107 14.965 13.0518 14.7138 13.303C14.4626 13.5541 14.3215 13.8948 14.3215 14.25Z" fill="white"/>
<path d="M21.0181 18.2678V26.3036C21.0181 26.6588 21.1592 26.9994 21.4103 27.2506C21.6615 27.5017 22.0022 27.6428 22.3574 27.6428C22.7126 27.6428 23.0532 27.5017 23.3044 27.2506C23.5555 26.9994 23.6966 26.6588 23.6966 26.3036V18.2678C23.6966 17.9126 23.5555 17.572 23.3044 17.3208C23.0532 17.0697 22.7126 16.9286 22.3574 16.9286C22.0022 16.9286 21.6615 17.0697 21.4103 17.3208C21.1592 17.572 21.0181 17.9126 21.0181 18.2678Z" fill="white"/>
<path d="M27.7144 12.9107V26.3036C27.7144 26.6588 27.8555 26.9994 28.1066 27.2506C28.3578 27.5017 28.6984 27.6428 29.0536 27.6428C29.4088 27.6428 29.7495 27.5017 30.0007 27.2506C30.2518 26.9994 30.3929 26.6588 30.3929 26.3036V12.9107C30.3929 12.5555 30.2518 12.2148 30.0007 11.9637C29.7495 11.7125 29.4088 11.5714 29.0536 11.5714C28.6984 11.5714 28.3578 11.7125 28.1066 11.9637C27.8555 12.2148 27.7144 12.5555 27.7144 12.9107Z" fill="white"/>
<path d="M8.96449 12.9107C9.31966 12.9106 9.66026 12.7695 9.91136 12.5183L14.714 7.71562C14.9693 7.47244 15.3084 7.33679 15.6609 7.33679C16.0135 7.33679 16.3525 7.47244 16.6078 7.71562L19.5167 10.6245C20.2702 11.3778 21.292 11.8009 22.3573 11.8009C23.4227 11.8009 24.4445 11.3778 25.198 10.6245L32.6792 3.1433C32.9232 2.89071 33.0582 2.5524 33.0551 2.20124C33.0521 1.85009 32.9112 1.51418 32.6629 1.26586C32.4146 1.01755 32.0787 0.876698 31.7275 0.873647C31.3764 0.870595 31.0381 1.00559 30.7855 1.24955L23.3042 8.72946C23.0531 8.98054 22.7125 9.12158 22.3573 9.12158C22.0022 9.12158 21.6616 8.98054 21.4105 8.72946L18.5015 5.82187C17.7481 5.06864 16.7263 4.6455 15.6609 4.6455C14.5955 4.6455 13.5738 5.06864 12.8203 5.82187L8.01761 10.6245C7.83037 10.8119 7.70286 11.0505 7.65121 11.3102C7.59955 11.57 7.62608 11.8392 7.72742 12.0839C7.82876 12.3286 8.00038 12.5377 8.22057 12.6849C8.44076 12.8321 8.69964 12.9107 8.96449 12.9107Z" fill="white"/>
</g>
<defs>
<clipPath id="clip0_75_286">
<rect width="32.1429" height="32.1429" fill="white" transform="translate(0.928711 0.857132)"/>
</clipPath>
</defs>
</svg>
