<svg width="18" height="21" viewBox="0 0 18 21" fill="none" xmlns="http://www.w3.org/2000/svg">
<g clip-path="url(#clip0_72_10)">
<path d="M17.25 18.526H3.75C3.15326 18.526 2.58097 18.2643 2.15901 17.7985C1.73705 17.3327 1.5 16.7009 1.5 16.0422V1.13961C1.5 0.920029 1.42098 0.709444 1.28033 0.554178C1.13968 0.398913 0.948912 0.311686 0.75 0.311686C0.551088 0.311686 0.360322 0.398913 0.21967 0.554178C0.0790176 0.709444 0 0.920029 0 1.13961L0 16.0422C0.00119089 17.1397 0.396661 18.1919 1.09966 18.9679C1.80267 19.7439 2.7558 20.1805 3.75 20.1818H17.25C17.4489 20.1818 17.6397 20.0946 17.7803 19.9393C17.921 19.7841 18 19.5735 18 19.3539C18 19.1343 17.921 18.9237 17.7803 18.7685C17.6397 18.6132 17.4489 18.526 17.25 18.526Z" fill="#6B6B6B"/>
<path d="M4.5 16.8701C4.69891 16.8701 4.88968 16.7829 5.03033 16.6276C5.17098 16.4724 5.25 16.2618 5.25 16.0422V10.2468C5.25 10.0272 5.17098 9.81659 5.03033 9.66132C4.88968 9.50606 4.69891 9.41883 4.5 9.41883C4.30109 9.41883 4.11032 9.50606 3.96967 9.66132C3.82902 9.81659 3.75 10.0272 3.75 10.2468V16.0422C3.75 16.2618 3.82902 16.4724 3.96967 16.6276C4.11032 16.7829 4.30109 16.8701 4.5 16.8701Z" fill="#6B6B6B"/>
<path d="M7.5 8.59091V16.0422C7.5 16.2618 7.57902 16.4724 7.71967 16.6276C7.86032 16.7829 8.05109 16.8701 8.25 16.8701C8.44891 16.8701 8.63968 16.7829 8.78033 16.6276C8.92098 16.4724 9 16.2618 9 16.0422V8.59091C9 8.37133 8.92098 8.16074 8.78033 8.00548C8.63968 7.85021 8.44891 7.76299 8.25 7.76299C8.05109 7.76299 7.86032 7.85021 7.71967 8.00548C7.57902 8.16074 7.5 8.37133 7.5 8.59091Z" fill="#6B6B6B"/>
<path d="M11.25 11.0747V16.0422C11.25 16.2618 11.329 16.4724 11.4697 16.6276C11.6103 16.7829 11.8011 16.8701 12 16.8701C12.1989 16.8701 12.3897 16.7829 12.5303 16.6276C12.671 16.4724 12.75 16.2618 12.75 16.0422V11.0747C12.75 10.8551 12.671 10.6445 12.5303 10.4892C12.3897 10.334 12.1989 10.2467 12 10.2467C11.8011 10.2467 11.6103 10.334 11.4697 10.4892C11.329 10.6445 11.25 10.8551 11.25 11.0747Z" fill="#6B6B6B"/>
<path d="M15 7.76298V16.0422C15 16.2618 15.079 16.4724 15.2197 16.6276C15.3603 16.7829 15.5511 16.8701 15.75 16.8701C15.9489 16.8701 16.1397 16.7829 16.2803 16.6276C16.421 16.4724 16.5 16.2618 16.5 16.0422V7.76298C16.5 7.54341 16.421 7.33282 16.2803 7.17756C16.1397 7.02229 15.9489 6.93506 15.75 6.93506C15.5511 6.93506 15.3603 7.02229 15.2197 7.17756C15.079 7.33282 15 7.54341 15 7.76298Z" fill="#6B6B6B"/>
<path d="M4.49996 7.76302C4.69886 7.76298 4.88959 7.67572 5.03021 7.52044L7.71971 4.55151C7.86266 4.40118 8.05253 4.31733 8.24996 4.31733C8.4474 4.31733 8.63726 4.40118 8.78021 4.55151L10.4092 6.34976C10.8311 6.8154 11.4033 7.07697 12 7.07697C12.5966 7.07697 13.1688 6.8154 13.5907 6.34976L17.7802 1.72499C17.9168 1.56884 17.9924 1.35971 17.9907 1.14263C17.989 0.925549 17.9101 0.717896 17.7711 0.564392C17.632 0.410889 17.4439 0.323817 17.2473 0.321931C17.0506 0.320044 16.8612 0.403494 16.7197 0.554307L12.5302 5.17825C12.3896 5.33346 12.1988 5.42066 12 5.42066C11.8011 5.42066 11.6104 5.33346 11.4697 5.17825L9.84071 3.38083C9.41878 2.9152 8.84658 2.65362 8.24996 2.65362C7.65334 2.65362 7.08115 2.9152 6.65921 3.38083L3.96971 6.34976C3.86486 6.46555 3.79345 6.61305 3.76452 6.77363C3.7356 6.93421 3.75045 7.10065 3.8072 7.25191C3.86396 7.40317 3.96006 7.53246 4.08337 7.62344C4.20668 7.71441 4.35165 7.76299 4.49996 7.76302Z" fill="#6B6B6B"/>
</g>
<defs>
<clipPath id="clip0_72_10">
<rect width="18" height="19.8701" fill="white" transform="translate(0 0.311686)"/>
</clipPath>
</defs>
</svg>
